<?xml version="1.0" encoding="UTF-8" standalone="no"?>
<!-- Created with Inkscape (http://www.inkscape.org/) -->

<svg
   xmlns:dc="http://purl.org/dc/elements/1.1/"
   xmlns:cc="http://creativecommons.org/ns#"
   xmlns:rdf="http://www.w3.org/1999/02/22-rdf-syntax-ns#"
   xmlns:svg="http://www.w3.org/2000/svg"
   xmlns="http://www.w3.org/2000/svg"
   xmlns:sodipodi="http://sodipodi.sourceforge.net/DTD/sodipodi-0.dtd"
   xmlns:inkscape="http://www.inkscape.org/namespaces/inkscape"
   width="744.09448819"
   height="1052.3622047"
   id="svg3781"
   version="1.1"
   inkscape:version="0.48.5 r10040"
   sodipodi:docname="pirate.svg">
  <defs
     id="defs3783" />
  <sodipodi:namedview
     id="base"
     pagecolor="#ffffff"
     bordercolor="#666666"
     borderopacity="1.0"
     inkscape:pageopacity="0.0"
     inkscape:pageshadow="2"
     inkscape:zoom="0.49497475"
     inkscape:cx="188.65293"
     inkscape:cy="780.16949"
     inkscape:document-units="px"
     inkscape:current-layer="layer1"
     showgrid="false"
     inkscape:window-width="1366"
     inkscape:window-height="666"
     inkscape:window-x="0"
     inkscape:window-y="50"
     inkscape:window-maximized="1">
    <inkscape:grid
       type="xygrid"
       id="grid2992" />
  </sodipodi:namedview>
  <metadata
     id="metadata3786">
    <rdf:RDF>
      <cc:Work
         rdf:about="">
        <dc:format>image/svg+xml</dc:format>
        <dc:type
           rdf:resource="http://purl.org/dc/dcmitype/StillImage" />
        <dc:title />
      </cc:Work>
    </rdf:RDF>
  </metadata>
  <g
     inkscape:label="Layer 1"
     inkscape:groupmode="layer"
     id="layer1">
    <rect
       style="fill:#d7e3f4;fill-opacity:1;stroke:none"
       id="rect4637"
       width="619.81812"
       height="295.11243"
       x="74.2855"
       y="253.41223" />
    <path
       style="fill:#e9c6af;stroke:none"
       d="m 318.94533,294.98756 c -30.19598,0.25724 -46.85504,23.28582 -53.59424,26.59309 -22.39404,13.31834 0.41103,47.81352 -11.01388,49.86762 -13.15609,3.20245 -30.73256,-25.07242 -71.9045,-9.27843 -69.80342,29.99437 -58.8952,61.25015 -30.72778,92.77532 18.36171,17.97886 58.75515,44.80099 88.13383,6.95545 5.4119,-6.76484 91.1633,82.37437 136.26153,40.5892 10.84514,-11.63851 -6.99715,-36.87789 -2.31849,-45.80467 10.05062,-17.52225 93.16463,22.61695 103.21525,22.61085 134.76782,-5.11301 239.98973,-110.59844 107.26921,-97.41229 -72.31336,11.31695 -89.80927,-30.14226 -123.50756,-51.02463 -22.03407,-13.22125 -46.96673,21.33514 -66.10156,2.89699 -31.43674,-29.74291 -56.35539,-38.93339 -75.71181,-38.7685 z m 65.02078,94.64985 c 16.20435,-0.14015 36.37437,3.64768 55.91719,14.86161 32.02798,19.11021 43.92304,67.07614 -84.07537,1.73999 -13.77786,-5.94413 2.03279,-16.37566 28.15818,-16.6016 z"
       id="path4199-8"
       inkscape:connector-curvature="0" />
    <path
       style="fill:none;stroke:#c83737;stroke-width:2.87007928;stroke-linecap:butt;stroke-linejoin:miter;stroke-miterlimit:4;stroke-opacity:1;stroke-dasharray:8.61023805, 8.61023805;stroke-dashoffset:0"
       d="m 276.03098,404.07814 c 28.19491,0.68991 36.87199,-2.22924 51.17192,-12.34655 17.42599,-13.46826 34.66053,-27.31952 55.08512,-34.79062 61.69395,-14.21961 73.0603,26.28625 109.59047,39.42937 16.04229,4.68326 84.27057,-6.185 126.40588,-9.2775 9.92187,0.35576 15.01612,18.25047 4.0589,26.09296 -38.52651,24.3128 -78.71683,42.25594 -124.66635,48.70686 -4.62829,0.46847 -22.01722,-0.61622 -8.11784,11.01703"
       id="path4635"
       inkscape:connector-curvature="0"
       sodipodi:nodetypes="cccccccc" />
    <path
       style="fill:#deaa87;stroke:none"
       d="m 266.72376,462.13251 c 18.04607,12.31817 26.23459,5.56353 35.03864,0 l -2.50277,-20.03758 c -2.50271,-23.37717 -25.02757,-26.71677 -30.0331,0 z"
       id="path2990-3-5-3-85"
       inkscape:connector-curvature="0"
       sodipodi:nodetypes="ccccc" />
    <path
       style="opacity:0.2;fill:#000000;stroke:#000000;stroke-width:0.14455286px;stroke-linecap:butt;stroke-linejoin:miter;stroke-opacity:1"
       d="m 271.61684,434.11521 c -0.98929,2.30106 -1.80272,4.98832 -2.38151,8.07765 l -2.50277,20.03758 c 11.75664,8.02506 19.32926,7.95222 25.61419,5.39032 -14.2015,-3.40959 -18.93198,-16.9 -20.72991,-33.50555 z"
       id="path2990-3-7-1"
       inkscape:connector-curvature="0" />
    <path
       style="fill:#deaa87;stroke:none"
       d="m 289.66351,469.04644 c 13.41191,8.13912 19.49761,3.67606 26.04081,0 l -1.86003,-13.23964 c -1.86009,-15.44625 -18.60064,-17.65286 -22.32075,0 z"
       id="path2990-3-5-3-2-7"
       inkscape:connector-curvature="0"
       sodipodi:nodetypes="ccccc" />
    <path
       style="opacity:0.2;fill:#000000;stroke:#000000;stroke-width:0.10129686px;stroke-linecap:butt;stroke-linejoin:miter;stroke-opacity:1"
       d="m 293.30001,450.53427 c -0.7352,1.52041 -1.3398,3.29599 -1.76995,5.33724 l -1.86004,13.23964 c 8.73761,5.30248 14.36556,5.25435 19.03655,3.5616 -10.5546,-2.25286 -14.07034,-11.16652 -15.40656,-22.13848 z"
       id="path2990-3-7-6-0"
       inkscape:connector-curvature="0" />
    <path
       style="fill:#deaa87;stroke:none"
       d="m 325.0689,367.09823 c 15.06116,10.58635 21.89521,4.78135 29.24304,0 l -2.0888,-17.22047 c -2.0888,-20.09056 -20.88789,-22.96064 -25.06544,0 z"
       id="path2990-3-5-5-9"
       inkscape:connector-curvature="0"
       sodipodi:nodetypes="ccccc" />
    <path
       style="opacity:0.2;fill:#000000;stroke:#000000;stroke-width:0.12242329px;stroke-linecap:butt;stroke-linejoin:miter;stroke-opacity:1"
       d="m 329.15263,343.01992 c -0.82566,1.97755 -1.50458,4.287 -1.98759,6.942 l -2.0888,17.22047 c 9.81202,6.89681 16.13204,6.83421 21.37742,4.6325 -11.85247,-2.93024 -15.80048,-14.52402 -17.30103,-28.79497 z"
       id="path2990-3-8-3"
       inkscape:connector-curvature="0" />
    <path
       style="fill:#502d16;stroke:none"
       d="m 292.6412,372.22515 c 20.69459,15.4366 30.08487,6.97199 40.18107,0 l -2.87007,-25.11023 c -2.87007,-29.29528 -28.7008,-33.48031 -34.44094,0 z"
       id="path2990-3-5-4-3-7"
       inkscape:connector-curvature="0"
       sodipodi:nodetypes="ccccc" />
    <path
       inkscape:connector-curvature="0"
       style="fill:#deaa87;stroke:none"
       d="m 313.0496,322.53641 c -7.31517,-0.0308 -14.80783,7.48929 -17.58821,24.01369 l -2.87007,25.58616 c 10.87188,8.26328 18.62307,9.80358 24.99661,8.37547 -0.20047,-0.0481 -0.40023,-0.0951 -0.60096,-0.14659 1.51581,-12.09921 4.03211,-16.6385 6.30524,-16.79092 2.57529,-0.17267 4.8368,5.2873 4.96881,11.76031 1.51479,-1.0417 3.00507,-2.13835 4.51138,-3.19827 l -2.87007,-25.58616 c -1.47985,-15.39168 -9.06568,-23.98094 -16.85273,-24.01369 z m 12.06776,18.72321 c 0.0424,-0.003 0.0833,-10e-4 0.12555,0 1.05198,0.0218 2.11873,1.14866 2.0988,2.70521 -0.20748,14.39084 -1.62692,13.64257 -3.74457,4.11111 -1.00547,-4.88989 0.21351,-6.73161 1.52022,-6.81632 z m -14.53875,0.66631 c 2.50266,-0.0692 7.32886,5.0692 7.22901,8.28219 -2.58349,19.77104 -5.48029,16.15405 -8.61021,-4.8707 -0.31677,-2.42439 0.32455,-3.38228 1.3812,-3.41149 z m 12.1216,12.59985 c 0.49459,-0.20748 3.21282,6.62043 2.59208,7.35603 -0.80968,0.71446 -3.3445,-6.46593 -2.63244,-7.30938 0.0114,-0.0218 0.0245,-0.0399 0.0402,-0.0467 z m -2.78037,0.84621 c 1.24679,-0.1087 -0.19091,9.92649 -1.60095,10.60094 -1.60812,0.60964 0.51844,-10.20861 1.53815,-10.58761 0.0212,-0.007 0.0429,-0.0116 0.0628,-0.0133 z"
       id="path2990-5-1-4" />
    <path
       style="opacity:0.2;fill:#000000;stroke:none"
       d="m 298.1957,336.22844 c -1.13439,2.93824 -2.06729,6.36964 -2.73105,10.31442 l -2.87007,25.58617 c 13.48216,10.24727 22.16614,10.15425 29.37347,6.88294 -16.28572,-4.35374 -21.7105,-21.57976 -23.77235,-42.78353 z"
       id="path2990-3-6-8-0"
       inkscape:connector-curvature="0" />
    <path
       style="fill:#deaa87;stroke:none"
       d="m 266.47799,378.867 c 18.04606,12.31817 26.23454,5.56354 35.03864,0 l -2.50277,-20.03758 c -2.50277,-23.37717 -25.02757,-26.71677 -30.03311,0 z"
       id="path2990-3-5-3"
       inkscape:connector-curvature="0"
       sodipodi:nodetypes="ccccc" />
    <path
       style="opacity:0.2;fill:#000000;stroke:#000000;stroke-width:0.14455286px;stroke-linecap:butt;stroke-linejoin:miter;stroke-opacity:1"
       d="m 271.37106,350.84971 c -0.98928,2.30105 -1.80277,4.98832 -2.38156,8.07765 l -2.50277,20.03757 c 11.75669,8.02506 19.32932,7.95222 25.61424,5.39032 -14.20149,-3.40959 -18.93197,-16.9 -20.72991,-33.50554 z"
       id="path2990-3-7"
       inkscape:connector-curvature="0" />
    <path
       style="fill:#deaa87;stroke:none"
       d="m 305.67483,473.20282 c 18.04607,12.31816 26.23459,5.56353 35.03864,0 l -2.50277,-20.03758 c -2.50271,-23.37718 -25.02757,-26.71678 -30.0331,0 z"
       id="path2990-3-5-3-8"
       inkscape:connector-curvature="0"
       sodipodi:nodetypes="ccccc" />
    <path
       style="opacity:0.2;fill:#000000;stroke:#000000;stroke-width:0.14455286px;stroke-linecap:butt;stroke-linejoin:miter;stroke-opacity:1"
       d="m 310.56791,445.18552 c -0.98929,2.30105 -1.80277,4.98832 -2.38157,8.07765 l -2.50276,20.03758 c 11.75669,8.02505 19.32931,7.95221 25.61424,5.39032 -14.20149,-3.4096 -18.93197,-16.90001 -20.72991,-33.50555 z"
       id="path2990-3-7-2"
       inkscape:connector-curvature="0" />
    <path
       style="fill:#deaa87;stroke:none"
       d="m 324.51597,479.70818 c 13.41191,8.13912 19.49762,3.67605 26.04086,0 l -1.86008,-13.23964 c -1.86003,-15.44625 -18.60058,-17.65286 -22.3207,0 z"
       id="path2990-3-5-3-2"
       inkscape:connector-curvature="0"
       sodipodi:nodetypes="ccccc" />
    <path
       style="opacity:0.2;fill:#000000;stroke:#000000;stroke-width:0.10129686px;stroke-linecap:butt;stroke-linejoin:miter;stroke-opacity:1"
       d="m 328.15253,461.19601 c -0.7352,1.52041 -1.3398,3.29599 -1.76996,5.33724 l -1.86008,13.23964 c 8.7376,5.30248 14.36561,5.25435 19.03655,3.5616 -10.55456,-2.25286 -14.0703,-11.16652 -15.40651,-22.13848 z"
       id="path2990-3-7-6"
       inkscape:connector-curvature="0" />
    <path
       style="fill:#deaa87;stroke:none"
       d="m 175.04208,416.12784 c 13.41191,13.34144 19.49762,6.0257 26.04081,0 l -1.86003,-21.70208 c -1.86003,-25.31911 -18.60058,-28.93612 -22.3207,0 z"
       id="path2990-3-5-3-2-3"
       inkscape:connector-curvature="0"
       sodipodi:nodetypes="ccccc" />
    <path
       style="opacity:0.2;fill:#000000;stroke:#000000;stroke-width:0.12969065px;stroke-linecap:butt;stroke-linejoin:miter;stroke-opacity:1"
       d="m 178.67864,385.78317 c -0.73525,2.4922 -1.3398,5.4027 -1.76996,8.74865 l -1.86008,21.70209 c 8.7376,8.69169 14.36556,8.6128 19.03655,5.83809 -10.55455,-3.69283 -14.07029,-18.30387 -15.40651,-36.28883 z"
       id="path2990-3-7-6-4"
       inkscape:connector-curvature="0" />
    <path
       style="fill:#deaa87;stroke:none"
       d="m 191.29081,421.50292 c 13.42044,11.08717 19.51,5.00755 26.05732,0 l -1.86122,-18.03515 c -1.86123,-21.041 -18.61237,-24.04686 -22.33487,0 z"
       id="path2990-3-5-3-2-3-1"
       inkscape:connector-curvature="0"
       sodipodi:nodetypes="ccccc" />
    <path
       style="opacity:0.2;fill:#000000;stroke:#000000;stroke-width:0.11826477px;stroke-linecap:butt;stroke-linejoin:miter;stroke-opacity:1"
       d="m 194.92965,396.28549 c -0.73569,2.07111 -1.34067,4.48982 -1.77104,7.27043 l -1.86128,18.03515 c 8.74314,7.22308 14.37468,7.15752 19.04866,4.85164 -10.56129,-3.06886 -14.07925,-15.21112 -15.41634,-30.15722 z"
       id="path2990-3-7-6-4-7"
       inkscape:connector-curvature="0" />
    <path
       style="fill:#deaa87;stroke:none"
       d="m 205.96494,426.38279 c 13.41191,13.34142 19.49762,6.02569 26.04087,0 l -1.86009,-21.70209 c -1.86003,-25.31911 -18.60058,-28.93612 -22.3207,0 z"
       id="path2990-3-5-3-2-3-2"
       inkscape:connector-curvature="0"
       sodipodi:nodetypes="ccccc" />
    <path
       style="opacity:0.2;fill:#000000;stroke:#000000;stroke-width:0.12969065px;stroke-linecap:butt;stroke-linejoin:miter;stroke-opacity:1"
       d="m 209.6015,396.03811 c -0.7352,2.4922 -1.3398,5.4027 -1.76996,8.74866 l -1.86008,21.70208 c 8.7376,8.69169 14.36561,8.6128 19.0366,5.83809 -10.5546,-3.69283 -14.07034,-18.30387 -15.40656,-36.28883 z"
       id="path2990-3-7-6-4-6"
       inkscape:connector-curvature="0" />
    <path
       style="fill:#deaa87;stroke:none"
       d="m 580.36866,414.2564 c 18.5262,13.34143 26.93252,6.0257 35.97082,0 l -2.56931,-21.70209 c -2.56938,-25.3191 -25.69351,-28.93612 -30.8322,0 z"
       id="path2990-3-5-3-2-3-2-9"
       inkscape:connector-curvature="0"
       sodipodi:nodetypes="ccccc" />
    <path
       style="opacity:0.2;fill:#000000;stroke:#000000;stroke-width:0.15242513px;stroke-linecap:butt;stroke-linejoin:miter;stroke-opacity:1"
       d="m 585.39185,383.91173 c -1.01553,2.4922 -1.85069,5.40269 -2.44486,8.74865 l -2.56937,21.70209 c 12.0695,8.69169 19.84357,8.6128 26.29571,5.83809 -14.57933,-3.69283 -19.43569,-18.30388 -21.28148,-36.28883 z"
       id="path2990-3-7-6-4-6-1"
       inkscape:connector-curvature="0" />
    <path
       style="fill:#deaa87;stroke:none"
       d="m 557.35856,421.82437 c 15.99671,11.58251 23.25527,5.23128 31.05954,0 l -2.21853,-18.8409 c -2.21853,-21.98105 -22.18537,-25.1212 -26.62248,0 z"
       id="path2990-3-5-3-2-3-2-9-6"
       inkscape:connector-curvature="0"
       sodipodi:nodetypes="ccccc" />
    <path
       style="opacity:0.2;fill:#000000;stroke:#000000;stroke-width:0.13197106px;stroke-linecap:butt;stroke-linejoin:miter;stroke-opacity:1"
       d="m 561.69593,395.48032 c -0.87688,2.16364 -1.59796,4.69041 -2.11102,7.59524 l -2.21859,18.8409 c 10.42157,7.54578 17.1342,7.47729 22.70539,5.06839 -12.5887,-3.20596 -16.782,-15.8907 -18.37578,-31.50453 z"
       id="path2990-3-7-6-4-6-1-4"
       inkscape:connector-curvature="0" />
    <path
       style="fill:#deaa87;stroke:none"
       d="m 527.02671,429.01113 c 18.52621,13.34143 26.93253,6.02569 35.97088,0 l -2.56937,-21.70209 c -2.56932,-25.31911 -25.69345,-28.93612 -30.83214,0 z"
       id="path2990-3-5-3-2-3-2-9-9"
       inkscape:connector-curvature="0"
       sodipodi:nodetypes="ccccc" />
    <path
       style="opacity:0.2;fill:#000000;stroke:#000000;stroke-width:0.15242513px;stroke-linecap:butt;stroke-linejoin:miter;stroke-opacity:1"
       d="m 532.04996,398.66645 c -1.01558,2.4922 -1.85069,5.4027 -2.44486,8.74865 l -2.56937,21.7021 c 12.06945,8.69168 19.84351,8.61279 26.29566,5.83808 -14.57928,-3.69282 -19.43569,-18.30387 -21.28143,-36.28883 z"
       id="path2990-3-7-6-4-6-1-42"
       inkscape:connector-curvature="0" />
    <path
       style="fill:#c83737;fill-opacity:1;stroke:none"
       d="m 269.05779,393.57207 -7.35179,7.42165 -7.81949,-7.46207 -4.5079,4.59295 7.79911,7.4426 -7.66178,7.73175 4.63819,4.46507 7.68155,-7.75179 7.63901,7.28978 4.5078,-4.59296 -7.61864,-7.27036 7.32929,-7.39861 -4.63535,-4.46801 z"
       id="rect3793"
       inkscape:connector-curvature="0" />
  </g>
</svg>
